<?xml version="1.0" encoding="UTF-8" standalone="no"?>
<svg width="29px" height="29px" viewBox="0 0 29 29" version="1.1" xmlns="http://www.w3.org/2000/svg" xmlns:xlink="http://www.w3.org/1999/xlink">
    <!-- Generator: Sketch 3.6.1 (26313) - http://www.bohemiancoding.com/sketch -->
    <title>icone_performance</title>
    <desc>Created with Sketch.</desc>
    <defs></defs>
    <g id="Menu" stroke="none" stroke-width="1" fill="none" fill-rule="evenodd">
        <g id="Artboard-5" transform="translate(-1928.000000, -380.000000)" fill="#FFFFFF">
            <g id="icone_performance" transform="translate(1928.000000, 380.000000)">
                <path d="M7.34090909,13.7159091 C10.8617244,13.7159091 13.7159091,10.8617244 13.7159091,7.34090909 C13.7159091,3.82009381 10.8617244,0.965909091 7.34090909,0.965909091 C3.82009381,0.965909091 0.965909091,3.82009381 0.965909091,7.34090909 C0.965909091,10.8617244 3.82009381,13.7159091 7.34090909,13.7159091 L7.34090909,13.7159091 Z M7.34090909,12.2159091 C4.64852094,12.2159091 2.46590909,10.0332972 2.46590909,7.34090909 C2.46590909,4.64852094 4.64852094,2.46590909 7.34090909,2.46590909 C10.0332972,2.46590909 12.2159091,4.64852094 12.2159091,7.34090909 C12.2159091,10.0332972 10.0332972,12.2159091 7.34090909,12.2159091 L7.34090909,12.2159091 Z" id="Oval-21"></path>
                <path d="M7.34090909,28.0340909 C10.8617244,28.0340909 13.7159091,25.1799062 13.7159091,21.6590909 C13.7159091,18.1382756 10.8617244,15.2840909 7.34090909,15.2840909 C3.82009381,15.2840909 0.965909091,18.1382756 0.965909091,21.6590909 C0.965909091,25.1799062 3.82009381,28.0340909 7.34090909,28.0340909 L7.34090909,28.0340909 Z M7.34090909,26.5340909 C4.64852094,26.5340909 2.46590909,24.3514791 2.46590909,21.6590909 C2.46590909,18.9667028 4.64852094,16.7840909 7.34090909,16.7840909 C10.0332972,16.7840909 12.2159091,18.9667028 12.2159091,21.6590909 C12.2159091,24.3514791 10.0332972,26.5340909 7.34090909,26.5340909 L7.34090909,26.5340909 Z" id="Oval-21"></path>
                <path d="M21.6590909,13.7159091 C25.1799062,13.7159091 28.0340909,10.8617244 28.0340909,7.34090909 C28.0340909,3.82009381 25.1799062,0.965909091 21.6590909,0.965909091 C18.1382756,0.965909091 15.2840909,3.82009381 15.2840909,7.34090909 C15.2840909,10.8617244 18.1382756,13.7159091 21.6590909,13.7159091 L21.6590909,13.7159091 Z M21.6590909,12.2159091 C18.9667028,12.2159091 16.7840909,10.0332972 16.7840909,7.34090909 C16.7840909,4.64852094 18.9667028,2.46590909 21.6590909,2.46590909 C24.3514791,2.46590909 26.5340909,4.64852094 26.5340909,7.34090909 C26.5340909,10.0332972 24.3514791,12.2159091 21.6590909,12.2159091 L21.6590909,12.2159091 Z" id="Oval-21"></path>
                <path d="M21.6590909,28.0340909 C25.1799062,28.0340909 28.0340909,25.1799062 28.0340909,21.6590909 C28.0340909,18.1382756 25.1799062,15.2840909 21.6590909,15.2840909 C18.1382756,15.2840909 15.2840909,18.1382756 15.2840909,21.6590909 C15.2840909,25.1799062 18.1382756,28.0340909 21.6590909,28.0340909 L21.6590909,28.0340909 Z M21.6590909,26.5340909 C18.9667028,26.5340909 16.7840909,24.3514791 16.7840909,21.6590909 C16.7840909,18.9667028 18.9667028,16.7840909 21.6590909,16.7840909 C24.3514791,16.7840909 26.5340909,18.9667028 26.5340909,21.6590909 C26.5340909,24.3514791 24.3514791,26.5340909 21.6590909,26.5340909 L21.6590909,26.5340909 Z" id="Oval-21"></path>
            </g>
        </g>
    </g>
</svg>