<?xml version="1.0" encoding="iso-8859-1"?>
<!-- Generator: Adobe Illustrator 18.1.1, SVG Export Plug-In . SVG Version: 6.00 Build 0)  -->
<svg xmlns="http://www.w3.org/2000/svg" xmlns:xlink="http://www.w3.org/1999/xlink" version="1.1" id="Capa_1" x="0px" y="0px" viewBox="0 0 496 496" style="enable-background:new 0 0 496 496;" xml:space="preserve" width="512px" height="512px">
<g>
	<g>
		<path d="M12,461h328V31H12V461z M53,72h246v338H53V72z" fill="#FFFFFF"/>
		<rect x="84" y="113" width="184" height="41" fill="#FFFFFF"/>
		<rect x="84" y="185" width="184" height="41" fill="#FFFFFF"/>
		<rect x="84" y="256" width="184" height="41" fill="#FFFFFF"/>
		<rect x="84" y="328" width="184" height="41" fill="#FFFFFF"/>
		<rect x="402" y="113" width="82" height="287" fill="#FFFFFF"/>
		<path d="M471.5,12c-8.333-8-18-12-29-12S422,4,414,12s-12,17.667-12,29v41h82V41    C484,29.667,479.833,20,471.5,12z" fill="#FFFFFF"/>
		<polygon points="442,496 484,430 401,430   " fill="#FFFFFF"/>
	</g>
</g>
<g>
</g>
<g>
</g>
<g>
</g>
<g>
</g>
<g>
</g>
<g>
</g>
<g>
</g>
<g>
</g>
<g>
</g>
<g>
</g>
<g>
</g>
<g>
</g>
<g>
</g>
<g>
</g>
<g>
</g>
</svg>
