<?xml version="1.0" encoding="UTF-8" standalone="no"?>
<svg width="26px" height="35px" viewBox="0 0 26 35" version="1.1" xmlns="http://www.w3.org/2000/svg" xmlns:xlink="http://www.w3.org/1999/xlink">
    <!-- Generator: Sketch 3.6.1 (26313) - http://www.bohemiancoding.com/sketch -->
    <title>icone_desafios</title>
    <desc>Created with Sketch.</desc>
    <defs></defs>
    <g id="Menu" stroke="none" stroke-width="1" fill="none" fill-rule="evenodd">
        <g id="Artboard-5" transform="translate(-1929.000000, -579.000000)" fill="#FFFFFF">
            <g id="icone_desafios" transform="translate(1929.000000, 579.000000)">
                <path d="M12.6836667,34.8416026 C12.6173667,34.8416026 12.5493333,34.8312821 12.4830333,34.8115385 C12.1740667,34.7173077 11.9617333,34.4225 11.9617333,34.0935897 L11.9617333,22.1276282 L1.0374,22.1276282 C0.7787,22.1276282 0.539066667,21.9840385 0.410366667,21.7507051 C0.281666667,21.5187179 0.2834,21.2301923 0.4147,21 L12.0614,0.526346154 C12.2260667,0.236025641 12.5597333,0.0969230769 12.8730333,0.183974359 C13.1880667,0.273717949 13.4060333,0.568525641 13.4060333,0.903269231 L13.4060333,13.1519231 L24.9617333,13.1519231 C25.2247667,13.1519231 25.4674333,13.3013462 25.5944,13.5391667 C25.7213667,13.7769872 25.7157333,14.0686538 25.5740333,14.300641 L13.2964,34.4929487 C13.1607667,34.7128205 12.9267667,34.8416026 12.6841,34.8416026 L12.6836667,34.8416026 Z M2.301,20.6320513 L12.6836667,20.6320513 C13.0823333,20.6320513 13.4060333,20.9685897 13.4060333,21.3800641 L13.4060333,31.503141 L23.6530667,14.6492949 L12.6841,14.6492949 C12.2854333,14.6492949 11.9617333,14.3127564 11.9617333,13.9012821 L11.9617333,3.64942308 L2.30143333,20.6320513 L2.301,20.6320513 Z" id="Shape"></path>
            </g>
        </g>
    </g>
</svg>