<?xml version="1.0" encoding="UTF-8" standalone="no"?>
<svg width="30px" height="28px" viewBox="0 0 30 28" version="1.1" xmlns="http://www.w3.org/2000/svg" xmlns:xlink="http://www.w3.org/1999/xlink">
    <!-- Generator: Sketch 3.6.1 (26313) - http://www.bohemiancoding.com/sketch -->
    <title>icone_notificacoes</title>
    <desc>Created with Sketch.</desc>
    <defs></defs>
    <g id="Menu" stroke="none" stroke-width="1" fill="none" fill-rule="evenodd">
        <g id="Artboard-5" transform="translate(-1928.000000, -489.000000)" fill="#FFFFFF">
            <g id="icone_notificacoes" transform="translate(1928.000000, 489.000000)">
                <path d="M0,0 L0,20.3271731 L4.73815962,20.3271731 L4.76007635,27.4229884 L13.4319925,20.3271731 L29.2114442,20.3271731 L29.2114442,0 L0,0 L0,0 Z M27.8437219,18.9635858 L12.9474551,18.9635858 L8.73944332,22.3827569 L6.10647425,24.5337678 L6.10647425,18.9635858 L1.36831463,18.9635858 L1.36831463,1.36358727 L27.8437219,1.36358727 L27.8437219,18.9635858 L27.8437219,18.9635858 Z" id="Fill-23"></path>
                <path d="M5.3653673,4.76921537 L25.0383807,4.76921537 L25.0383807,5.96151922 L5.3653673,5.96151922 L5.3653673,4.76921537 Z" id="Fill-24"></path>
                <path d="M5.3653673,8.94227883 L25.0383807,8.94227883 L25.0383807,10.1345827 L5.3653673,10.1345827 L5.3653673,8.94227883 Z" id="Fill-25"></path>
                <path d="M5.3653673,13.1153423 L19.6730134,13.1153423 L19.6730134,14.3076461 L5.3653673,14.3076461 L5.3653673,13.1153423 Z" id="Fill-26"></path>
            </g>
        </g>
    </g>
</svg>