<?xml version="1.0" encoding="UTF-8" standalone="no"?>
<svg width="31px" height="31px" viewBox="0 0 31 31" version="1.1" xmlns="http://www.w3.org/2000/svg" xmlns:xlink="http://www.w3.org/1999/xlink">
    <!-- Generator: Sketch 3.6.1 (26313) - http://www.bohemiancoding.com/sketch -->
    <title>icone_conquistas</title>
    <desc>Created with Sketch.</desc>
    <defs></defs>
    <g id="Menu" stroke="none" stroke-width="1" fill="none" fill-rule="evenodd">
        <g id="Artboard-5" transform="translate(-1928.000000, -714.000000)" fill="#FFFFFF">
            <g id="icone_conquistas" transform="translate(1928.000000, 714.000000)">
                <path d="M30.3117523,0 L0.687723158,0 C0.307927913,0 0,0.309929802 0,0.69297125 L0,4.06776243 C0,7.72652348 2.92977409,10.7055581 6.54936966,10.7590674 C6.61966325,16.131184 9.53422455,20.52477 14.7742449,20.9655591 L14.7742449,25.9366212 L11.2238937,25.9366212 L11.2238937,27.3220339 L19.7026652,27.3220339 L19.7026652,25.9366212 L16.1502158,25.9366212 L16.1502158,20.9835721 C21.5544293,20.7144365 24.3792876,16.2498579 24.4511549,10.7590674 C28.0707505,10.7055581 31,7.72652348 31,4.06776243 L31,0.69297125 C31,0.309929802 30.6920721,0 30.3117523,0 L30.3117523,0 Z M1.37597089,4.06776243 L1.37597089,1.38541271 L6.54202555,1.38541271 L6.54202555,9.37312489 C3.68411879,9.31590708 1.37597089,6.96044058 1.37597089,4.06776243 L1.37597089,4.06776243 Z M23.0830527,10.6202612 C23.0830527,15.5849658 20.454387,19.6246491 15.5238683,19.6246491 C10.5938743,19.6246491 7.91799645,15.5849658 7.91799645,10.6202612 L7.91799645,1.38541271 L23.0830527,1.38541271 L23.0830527,10.6202612 L23.0830527,10.6202612 Z M29.6240291,4.06776243 C29.6240291,6.96044058 27.3158812,9.31590708 24.4590236,9.37312489 L24.4590236,1.38541271 L29.6240291,1.38541271 L29.6240291,4.06776243 L29.6240291,4.06776243 Z" id="Fill-57"></path>
                <path d="M7.3559322,29.4237288 L23.1186441,29.4237288 L23.1186441,31 L7.3559322,31 L7.3559322,29.4237288 Z" id="Fill-58"></path>
            </g>
        </g>
    </g>
</svg>