<?xml version="1.0" encoding="UTF-8" standalone="no"?>
<svg width="19px" height="23px" viewBox="0 0 19 23" version="1.1" xmlns="http://www.w3.org/2000/svg" xmlns:xlink="http://www.w3.org/1999/xlink">
    <!-- Generator: Sketch 3.6.1 (26313) - http://www.bohemiancoding.com/sketch -->
    <title>icone_sair</title>
    <desc>Created with Sketch.</desc>
    <defs></defs>
    <g id="Menu" stroke="none" stroke-width="1" fill="none" fill-rule="evenodd">
        <g id="Artboard-5" transform="translate(-1934.000000, -827.000000)" fill="#FFFFFF">
            <g id="icone_sair" transform="translate(1934.000000, 827.000000)">
                <path d="M6.23406442,4.03078221 C2.70857834,5.40087621 0.333333333,8.85499199 0.333333333,12.7609351 C0.333333333,17.9166065 4.43433374,22.1015148 9.5,22.1015148 C14.5656663,22.1015148 18.6666667,17.9166065 18.6666667,12.7609351 C18.6666667,8.88635533 16.3293763,5.45425227 12.8454173,4.0621057 C12.503513,3.92548501 12.1155919,4.09190025 11.9789712,4.43380453 C11.8423505,4.77570882 12.0087657,5.16362996 12.35067,5.30025065 C15.3294275,6.49052499 17.3333333,9.4330825 17.3333333,12.7609351 C17.3333333,17.1862035 13.8231745,20.7681815 9.5,20.7681815 C5.17682552,20.7681815 1.66666667,17.1862035 1.66666667,12.7609351 C1.66666667,9.4062246 3.70305611,6.4448775 6.71704182,5.27356562 C7.06022698,5.14019509 7.23031535,4.75387038 7.09694482,4.41068521 C6.9635743,4.06750005 6.57724958,3.89741168 6.23406442,4.03078221 L6.23406442,4.03078221 Z" id="Oval-25"></path>
                <path d="M8.83333333,1.45652174 L8.83333333,13.3611519 C8.83333333,13.7293417 9.13181017,14.0278186 9.5,14.0278186 C9.86818983,14.0278186 10.1666667,13.7293417 10.1666667,13.3611519 L10.1666667,1.45652174 C10.1666667,1.08833191 9.86818983,0.789855072 9.5,0.789855072 C9.13181017,0.789855072 8.83333333,1.08833191 8.83333333,1.45652174 L8.83333333,1.45652174 Z" id="Line"></path>
            </g>
        </g>
    </g>
</svg>