<?xml version="1.0" encoding="iso-8859-1"?>
<!-- Generator: Adobe Illustrator 18.1.1, SVG Export Plug-In . SVG Version: 6.00 Build 0)  -->
<svg xmlns="http://www.w3.org/2000/svg" xmlns:xlink="http://www.w3.org/1999/xlink" version="1.1" id="Capa_1" x="0px" y="0px" viewBox="0 0 488 488" style="enable-background:new 0 0 488 488;" xml:space="preserve" width="512px" height="512px">
<g>
	<g>
		<path d="M244,488c-59.333,0-109.833-21-151.5-63S30,332.333,30,273c0-37.333,9.167-72.333,27.5-105    S101,109.333,133,90c7.333-4,14.833-5,22.5-3s13.667,6.333,18,13s5.5,14,3.5,22s-6.333,14-13,18c-24,14.667-42.5,33.667-55.5,57    c-13,23.334-19.5,48.667-19.5,76c0,43.333,15.167,80.167,45.5,110.5S201.333,429,244,429s79.333-15.167,110-45.5    s46-67.167,46-110.5c0-27.333-7.167-53.167-21.5-77.5S345,152,321,138c-7.333-4-12-9.833-14-17.5s-1-15,3-22s9.833-11.667,17.5-14    S342.667,83,350,87c33.334,19.333,59.667,45.667,79,79s29,69,29,107c0,59.333-20.833,110-62.5,152S303.333,488,244,488z" fill="#FFFFFF"/>
		<path d="M242,271c-8.667,0-16.833-3-24.5-9S206,249,206,241V30c0-8,3.833-15,11.5-21s15.834-9,24.5-9    c8.667,0,16.833,3,24.5,9S278,22,278,30v211c0,8-3.833,15-11.5,21C258.832,268,250.666,271,242,271z" fill="#FFFFFF"/>
	</g>
</g>
<g>
</g>
<g>
</g>
<g>
</g>
<g>
</g>
<g>
</g>
<g>
</g>
<g>
</g>
<g>
</g>
<g>
</g>
<g>
</g>
<g>
</g>
<g>
</g>
<g>
</g>
<g>
</g>
<g>
</g>
</svg>
